<svg width="36" height="36" viewBox="0 0 44 44" fill="none" xmlns="http://www.w3.org/2000/svg">
<path d="M22 28C23.6667 28 25.0833 27.4167 26.25 26.25C27.4167 25.0833 28 23.6667 28 22C28 20.3333 27.4167 18.9167 26.25 17.75C25.0833 16.5833 23.6667 16 22 16C20.3333 16 18.9167 16.5833 17.75 17.75C16.5833 18.9167 16 20.3333 16 22C16 23.6667 16.5833 25.0833 17.75 26.25C18.9167 27.4167 20.3333 28 22 28ZM22 32C19.2333 32 16.875 31.025 14.925 29.075C12.975 27.125 12 24.7667 12 22C12 19.2333 12.975 16.875 14.925 14.925C16.875 12.975 19.2333 12 22 12C24.7667 12 27.125 12.975 29.075 14.925C31.025 16.875 32 19.2333 32 22C32 24.7667 31.025 27.125 29.075 29.075C27.125 31.025 24.7667 32 22 32ZM8 24H0V20H8V24ZM44 24H36V20H44V24ZM20 8V0H24V8H20ZM20 44V36H24V44H20ZM10.8 13.5L5.75 8.65L8.6 5.7L13.4 10.7L10.8 13.5ZM35.4 38.3L30.55 33.25L33.2 30.5L38.25 35.35L35.4 38.3ZM30.5 10.8L35.35 5.75L38.3 8.6L33.3 13.4L30.5 10.8ZM5.7 35.4L10.75 30.55L13.5 33.2L8.65 38.25L5.7 35.4Z" fill="#6085A7"/>
</svg>
